<svg width="230" height="88" viewBox="0 0 230 88" fill="none" xmlns="http://www.w3.org/2000/svg">
<g clip-path="url(#clip0)">
<mask id="mask0" mask-type="alpha" maskUnits="userSpaceOnUse" x="39" y="28" width="31" height="32">
<path d="M54.8801 59.0092C63.1968 59.0092 69.9389 52.2672 69.9389 43.9504C69.9389 35.6337 63.1968 28.8917 54.8801 28.8917C46.5634 28.8917 39.8213 35.6337 39.8213 43.9504C39.8213 52.2672 46.5634 59.0092 54.8801 59.0092Z" fill="white"/>
</mask>
<g mask="url(#mask0)">
<path d="M54.8801 59.0092C63.1968 59.0092 69.9389 52.2672 69.9389 43.9504C69.9389 35.6337 63.1968 28.8917 54.8801 28.8917C46.5634 28.8917 39.8213 35.6337 39.8213 43.9504C39.8213 52.2672 46.5634 59.0092 54.8801 59.0092Z" fill="#0054FF"/>
<path fill-rule="evenodd" clip-rule="evenodd" d="M63.0969 52.6988C63.5746 52.2212 64.349 52.2212 64.8266 52.6988L67.8215 55.6937C68.2991 56.1714 68.2991 56.9458 67.8215 57.4234C67.3439 57.9011 66.5694 57.9011 66.0918 57.4234L63.0969 54.4285C62.6193 53.9509 62.6193 53.1765 63.0969 52.6988ZM58.4882 48.3959C59.3241 47.56 60.6747 47.5554 61.505 48.3857C62.3352 49.2159 62.3306 50.5665 61.4947 51.4024C60.6589 52.2383 59.3082 52.2429 58.478 51.4126C57.6477 50.5824 57.6523 49.2318 58.4882 48.3959ZM55.1489 52.7199C55.6234 52.2455 56.3925 52.2455 56.867 52.7199C57.3414 53.1944 57.3414 53.9635 56.867 54.438L53.8283 57.4766C53.3539 57.951 52.5847 57.951 52.1103 57.4766C51.6359 57.0022 51.6359 56.233 52.1103 55.7586L55.1489 52.7199ZM52.1635 41.7654C52.6411 41.2878 53.4155 41.2878 53.8932 41.7654L56.8881 44.7603C57.3657 45.2379 57.3657 46.0123 56.8881 46.49C56.4104 46.9676 55.636 46.9676 55.1584 46.49L52.1635 43.4951C51.6858 43.0175 51.6858 42.243 52.1635 41.7654ZM47.5547 37.4624C48.3906 36.6266 49.7413 36.622 50.5715 37.4522C51.4017 38.2825 51.3972 39.6331 50.5613 40.469C49.7254 41.3049 48.3748 41.3094 47.5445 40.4792C46.7143 39.649 46.7189 38.2983 47.5547 37.4624ZM55.2232 30.7788C55.6977 30.3044 56.4668 30.3044 56.9413 30.7788C57.4157 31.2532 57.4157 32.0224 56.9413 32.4968L53.9026 35.5354C53.4282 36.0099 52.659 36.0099 52.1846 35.5354C51.7102 35.061 51.7102 34.2918 52.1846 33.8174L55.2232 30.7788ZM41.23 30.832C41.7077 30.3543 42.4821 30.3543 42.9597 30.832L45.9546 33.8268C46.4323 34.3045 46.4323 35.0789 45.9546 35.5565C45.477 36.0342 44.7026 36.0342 44.2249 35.5565L41.23 32.5617C40.7524 32.084 40.7524 31.3096 41.23 30.832Z" fill="white"/>
</g>
<path d="M80.7175 51.8754C81.7386 51.8754 82.6249 51.6751 83.3766 51.2746C84.1282 50.8741 84.7545 50.1523 85.2556 49.1091L85.596 51.596H89.0563V41.4389C89.0563 40.4982 88.853 39.6855 88.4465 39.0009C88.0399 38.3163 87.3829 37.7901 86.4752 37.4222C85.5676 37.0543 84.3622 36.8703 82.8589 36.8703C81.6393 36.8703 80.5497 37.0357 79.5901 37.3663C78.6304 37.697 77.8717 38.1999 77.3139 38.8752C76.7561 39.5505 76.4488 40.4097 76.3921 41.4529H79.8382C80.0368 40.7823 80.4079 40.3119 80.9515 40.0418C81.4951 39.7717 82.0695 39.632 82.6746 39.6227C83.4971 39.6133 84.1045 39.788 84.4969 40.1466C84.8893 40.5052 85.0854 41.0151 85.0854 41.6764V42.5426L83.256 42.5706C80.6655 42.5985 78.7699 43.0246 77.5692 43.8489C76.3685 44.6732 75.7681 45.8771 75.7681 47.4605C75.7681 48.4012 75.9856 49.1999 76.4205 49.8565C76.8554 50.5132 77.4463 51.0138 78.1932 51.3584C78.9401 51.7031 79.7815 51.8754 80.7175 51.8754ZM82.1073 49.1929C81.436 49.1929 80.864 49.0043 80.3913 48.6271C79.9186 48.2499 79.6822 47.7259 79.6822 47.0553C79.6822 46.4685 79.8642 46.0028 80.2282 45.6582C80.5922 45.3136 81.072 45.0644 81.6677 44.9107C82.2633 44.7571 82.9062 44.6756 83.5964 44.6662L85.0854 44.6383V46.7759C85.0854 47.0833 85.0004 47.3813 84.8302 47.6701C84.66 47.9588 84.4355 48.2173 84.1565 48.4455C83.8776 48.6737 83.5609 48.8553 83.2064 48.9903C82.8518 49.1254 82.4855 49.1929 82.1073 49.1929ZM97.4093 51.8474C97.6929 51.8474 97.9812 51.8125 98.2743 51.7427C98.5674 51.6728 98.8558 51.5913 99.1394 51.4982V48.9833L98.4445 48.9414C97.8016 48.8669 97.3643 48.6643 97.1327 48.3337C96.9011 48.003 96.7853 47.5723 96.7853 47.0414V30.8348H92.7293V47.5443C92.7293 48.0659 92.7719 48.5805 92.857 49.0881C92.942 49.5957 93.1359 50.0568 93.4384 50.4713C93.7409 50.8858 94.2089 51.2187 94.8424 51.4702C95.4758 51.7217 96.3314 51.8474 97.4093 51.8474ZM108.57 51.8754C109.591 51.8754 110.575 51.6844 111.52 51.3026C112.465 50.9207 113.271 50.3665 113.938 49.64C114.604 48.9135 115.018 48.038 115.179 47.0134H111.449C111.241 47.6933 110.87 48.1823 110.336 48.4804C109.802 48.7784 109.18 48.9275 108.471 48.9275C107.809 48.9275 107.244 48.7808 106.776 48.4874C106.308 48.194 105.951 47.7748 105.705 47.23C105.46 46.6851 105.341 46.0447 105.351 45.3089H115.193V44.2052C115.193 42.7615 114.935 41.4878 114.42 40.3841C113.905 39.2804 113.139 38.4188 112.123 37.7994C111.106 37.18 109.851 36.8703 108.357 36.8703C106.864 36.8703 105.585 37.208 104.521 37.8832C103.458 38.5585 102.647 39.476 102.089 40.6356C101.531 41.7952 101.252 43.0968 101.252 44.5405C101.252 46.0308 101.56 47.3254 102.174 48.4245C102.789 49.5236 103.647 50.3735 104.748 50.9742C105.85 51.575 107.124 51.8754 108.57 51.8754ZM111.321 42.8779H105.337C105.337 42.347 105.455 41.8394 105.691 41.3551C105.928 40.8707 106.27 40.4772 106.719 40.1745C107.169 39.8718 107.715 39.7205 108.357 39.7205C109.019 39.7205 109.57 39.8602 110.01 40.1396C110.449 40.419 110.778 40.8009 110.995 41.2852C111.213 41.7696 111.321 42.3005 111.321 42.8779ZM122.213 56.0947V49.4304C122.421 49.775 122.664 50.0941 122.943 50.3874C123.222 50.6808 123.539 50.9393 123.893 51.1628C124.248 51.3864 124.633 51.561 125.049 51.6868C125.465 51.8125 125.91 51.8754 126.382 51.8754C127.536 51.8754 128.571 51.6053 129.488 51.0651C130.405 50.5248 131.126 49.6935 131.651 48.5712C132.175 47.4488 132.438 46.0121 132.438 44.2611C132.438 42.5752 132.194 41.1851 131.707 40.0907C131.221 38.9963 130.552 38.1859 129.701 37.6597C128.85 37.1335 127.881 36.8703 126.794 36.8703C126.292 36.8703 125.815 36.9285 125.361 37.045C124.907 37.1614 124.487 37.3267 124.099 37.5409C123.711 37.7552 123.359 38.0043 123.042 38.2884C122.726 38.5725 122.459 38.8868 122.241 39.2315L122.227 37.1498H118.072V56.0947H122.213ZM125.39 48.8855C124.671 48.8855 124.078 48.6713 123.61 48.2429C123.142 47.8144 122.792 47.2509 122.56 46.5524C122.329 45.8538 122.213 45.0994 122.213 44.289C122.213 43.0223 122.475 41.9628 123 41.1106C123.525 40.2583 124.321 39.8322 125.39 39.8322C126.344 39.8322 127.113 40.2257 127.694 41.0128C128.276 41.7998 128.566 42.8919 128.566 44.289C128.566 45.8817 128.261 47.046 127.652 47.7818C127.042 48.5176 126.288 48.8855 125.39 48.8855ZM139.33 51.596V42.375C139.33 41.9 139.46 41.5018 139.72 41.1804C139.98 40.8591 140.318 40.6193 140.734 40.4609C141.15 40.3026 141.58 40.2234 142.025 40.2234C142.705 40.2234 143.284 40.3981 143.762 40.7473C144.239 41.0966 144.478 41.5972 144.478 42.2492V51.596H148.633V41.6485C148.633 40.6705 148.399 39.8415 147.931 39.1616C147.463 38.4817 146.844 37.9624 146.073 37.6038C145.303 37.2452 144.45 37.0659 143.514 37.0659C142.738 37.0659 142.081 37.1777 141.542 37.4012C141.003 37.6248 140.554 37.9019 140.195 38.2325C139.836 38.5632 139.538 38.8962 139.302 39.2315V30.8348H135.189V51.596H139.33Z" fill="white"/>
<path d="M164.322 52.2086V37.6094H160.32V52.2086H164.322ZM172.31 52.2086V42.8617C172.31 42.3723 172.439 41.9652 172.697 41.6404C172.955 41.3157 173.276 41.0757 173.658 40.9204C174.041 40.765 174.423 40.6874 174.805 40.6874C175.178 40.6874 175.544 40.765 175.903 40.9204C176.261 41.0757 176.56 41.3039 176.799 41.6051C177.038 41.9063 177.157 42.2782 177.157 42.7206V52.2086H181.331V42.8617C181.331 42.344 181.465 41.9252 181.732 41.6051C182 41.2851 182.325 41.0521 182.708 40.9062C183.09 40.7603 183.468 40.6874 183.841 40.6874C184.242 40.6874 184.622 40.765 184.981 40.9204C185.339 41.0757 185.636 41.3298 185.87 41.6828C186.104 42.0358 186.221 42.5041 186.221 43.0877V52.2086H190.409V42.5794C190.409 41.591 190.263 40.7603 189.972 40.0873C189.68 39.4143 189.295 38.8754 188.817 38.4707C188.339 38.0659 187.816 37.7741 187.247 37.5953C186.678 37.4164 186.116 37.327 185.562 37.327C184.606 37.327 183.738 37.5506 182.959 37.9977C182.179 38.4448 181.551 39.0025 181.073 39.6708C180.786 39.1531 180.411 38.7225 179.947 38.3789C179.483 38.0353 178.988 37.7741 178.463 37.5953C177.937 37.4164 177.42 37.327 176.914 37.327C175.757 37.327 174.798 37.5576 174.038 38.0189C173.278 38.4801 172.673 39.0307 172.224 39.6708V37.6094H168.122V52.2086H172.31Z" fill="white"/>
<path d="M162.235 34.7209C163.308 34.7209 164.178 33.851 164.178 32.7778C164.178 31.7047 163.308 30.8348 162.235 30.8348C161.162 30.8348 160.292 31.7047 160.292 32.7778C160.292 33.851 161.162 34.7209 162.235 34.7209Z" fill="white"/>
<path d="M154.462 52.2085C155.535 52.2085 156.405 51.3386 156.405 50.2655C156.405 49.1923 155.535 48.3224 154.462 48.3224C153.389 48.3224 152.519 49.1923 152.519 50.2655C152.519 51.3386 153.389 52.2085 154.462 52.2085Z" fill="white"/>
</g>
<defs>
<clipPath id="clip0">
<rect width="150.588" height="30.1176" fill="white" transform="translate(39.8213 28.8917)"/>
</clipPath>
</defs>
</svg>
