<svg width="231" height="88" viewBox="0 0 231 88" fill="none" xmlns="http://www.w3.org/2000/svg">
<g clip-path="url(#clip0)">
<path fill-rule="evenodd" clip-rule="evenodd" d="M58.165 45.288C59.8258 41.49 61.4944 37.6953 63.1361 33.8893C63.3174 33.469 63.5247 33.3146 63.9867 33.32C66.0731 33.3456 68.1602 33.339 70.2468 33.3243C70.6381 33.3216 70.8908 33.3793 71.0674 33.7959C73.957 40.6133 76.8652 47.4229 79.766 54.2355C79.7984 54.3116 79.7891 54.4053 79.8085 54.5682C78.5737 54.5682 77.3623 54.5418 76.1527 54.5799C75.5873 54.5977 75.5523 54.1744 75.4139 53.8491C73.1307 48.4792 70.8398 43.1125 68.6044 37.7229C68.3119 37.0178 67.9668 36.7681 67.2365 36.833C66.4961 36.8988 65.8028 36.6864 65.4138 37.7388C64.4703 40.2913 63.3417 42.7758 62.2877 45.2877C60.9135 45.2878 59.5393 45.2879 58.165 45.288Z" fill="white"/>
<path fill-rule="evenodd" clip-rule="evenodd" d="M59.2114 48.9784C58.2264 48.9786 57.2987 48.9789 56.5057 48.9789C55.6972 50.8175 54.888 52.6569 54.047 54.5687C55.4014 54.5687 56.6014 54.5492 57.8001 54.5798C58.1977 54.5899 58.3913 54.4542 58.5342 54.1115C59.2485 52.3968 59.9782 50.6883 60.7029 48.9779C60.2027 48.9781 59.7025 48.9783 59.2114 48.9784Z" fill="white"/>
<path fill-rule="evenodd" clip-rule="evenodd" d="M101.069 39.4627C101.87 37.5894 102.675 35.7177 103.467 33.8404C103.554 33.6331 103.654 33.5569 103.877 33.5596C104.883 33.5722 105.89 33.569 106.896 33.5617C107.085 33.5604 107.207 33.5888 107.292 33.7943C108.685 37.1569 110.088 40.5157 111.487 43.876C111.503 43.9135 111.498 43.9597 111.508 44.0401C110.912 44.0401 110.328 44.0271 109.744 44.0459C109.472 44.0547 109.455 43.8459 109.388 43.6854C108.287 41.0367 107.182 38.3896 106.104 35.7313C105.963 35.3835 105.796 35.2603 105.444 35.2923C105.087 35.3248 104.753 35.22 104.565 35.7391C104.11 36.9981 103.566 38.2236 103.057 39.4625C102.395 39.4626 101.732 39.4626 101.069 39.4627Z" fill="white"/>
<path fill-rule="evenodd" clip-rule="evenodd" d="M132.241 39.4627C133.042 37.5894 133.847 35.7177 134.639 33.8404C134.726 33.6331 134.826 33.5569 135.049 33.5596C136.056 33.5722 137.062 33.569 138.069 33.5617C138.257 33.5604 138.379 33.5888 138.464 33.7943C139.858 37.1569 141.261 40.5157 142.66 43.876C142.675 43.9135 142.671 43.9597 142.68 44.0401C142.085 44.0401 141.5 44.0271 140.917 44.0459C140.644 44.0547 140.627 43.8459 140.561 43.6854C139.459 41.0367 138.354 38.3896 137.276 35.7313C137.135 35.3835 136.969 35.2603 136.617 35.2923C136.26 35.3248 135.925 35.22 135.738 35.7391C135.282 36.9981 134.738 38.2236 134.23 39.4625C133.567 39.4626 132.904 39.4626 132.241 39.4627Z" fill="white"/>
<path fill-rule="evenodd" clip-rule="evenodd" d="M92.2473 39.1946C92.7929 39.1946 93.1705 39.144 93.3804 39.0428C93.5899 38.9417 93.6949 38.7562 93.6949 38.4866V35.5707C93.6949 35.3009 93.5899 35.1156 93.3804 35.0145C93.1705 34.9133 92.7929 34.8628 92.2473 34.8628H89.1847V39.1946H92.2473ZM89.1847 43.9983H87.0869V33.4638H92.2265C93.1633 33.4638 93.8942 33.5762 94.4186 33.801C94.943 34.0258 95.3206 34.3938 95.5516 34.9049C95.7822 35.4164 95.8975 36.1213 95.8975 37.0203C95.8975 38.2789 95.6385 39.1777 95.1213 39.717C94.6039 40.2565 93.7438 40.5261 92.5411 40.5261H89.1847V43.9983Z" fill="white"/>
<path fill-rule="evenodd" clip-rule="evenodd" d="M117.959 38.9417H121.122C121.666 38.9417 122.043 38.8911 122.253 38.7899C122.462 38.6888 122.567 38.5035 122.567 38.2338V35.5707C122.567 35.3009 122.462 35.1156 122.253 35.0145C122.043 34.9133 121.666 34.8628 121.122 34.8628H117.959V38.9417ZM123.111 43.9983L120.933 40.2732H117.959V43.9983H115.865V33.4638H121.101C122.036 33.4638 122.766 33.5762 123.289 33.801C123.813 34.0258 124.19 34.3938 124.42 34.9049C124.65 35.4164 124.766 36.1213 124.766 37.0202C124.766 37.8857 124.63 38.5624 124.357 39.0512C124.085 39.5401 123.642 39.88 123.028 40.0709L125.394 43.9983H123.111Z" fill="white"/>
<path fill-rule="evenodd" clip-rule="evenodd" d="M149.95 43.9983H147.852V33.4638H154.986L154.755 34.8628H149.95V38.2844H154.147V39.6159H149.95V43.9983Z" fill="white"/>
<mask id="mask0" mask-type="alpha" maskUnits="userSpaceOnUse" x="79" y="28" width="89" height="32">
<path d="M79.6649 59.752H167.723V28.1487H79.6649V59.752Z" fill="white"/>
</mask>
<g mask="url(#mask0)">
<path fill-rule="evenodd" clip-rule="evenodd" d="M160.541 43.9983H162.6V33.4638H160.541V43.9983Z" fill="white"/>
<path fill-rule="evenodd" clip-rule="evenodd" d="M100.243 41.2215C99.8533 42.1329 99.4632 43.0448 99.0579 43.9925C99.7107 43.9925 100.289 43.9828 100.867 43.998C101.059 44.003 101.152 43.9357 101.221 43.7658C101.565 42.9159 101.917 42.0689 102.266 41.221C102.025 41.2211 101.784 41.2212 101.547 41.2212C101.072 41.2213 100.625 41.2215 100.243 41.2215Z" fill="white"/>
<path fill-rule="evenodd" clip-rule="evenodd" d="M132.778 41.2212C132.3 41.2213 131.849 41.2215 131.466 41.2215C131.075 42.1329 130.684 43.0447 130.278 43.9926C130.93 43.9926 131.508 43.9829 132.085 43.998C132.277 44.003 132.37 43.936 132.439 43.7666C132.784 42.9163 133.136 42.0691 133.486 41.221C133.249 41.2211 133.011 41.2212 132.778 41.2212Z" fill="white"/>
<path fill-rule="evenodd" clip-rule="evenodd" d="M92.833 52.9985V51.4219C92.833 50.9195 92.945 50.5542 93.1689 50.326C93.3929 50.0977 93.7491 49.9836 94.2376 49.9836H95.0586C95.4748 49.9836 95.7848 50.0724 95.9883 50.2499C96.1919 50.4274 96.3049 50.7121 96.3276 51.1039C96.3366 51.2238 96.2778 51.2836 96.1512 51.2836C96.0426 51.2836 95.9838 51.2238 95.9747 51.1039C95.9566 50.8228 95.8797 50.6257 95.744 50.5127C95.6083 50.3997 95.3798 50.3432 95.0586 50.3432H94.2376C93.9752 50.3432 93.7683 50.3779 93.6167 50.447C93.4651 50.5161 93.3555 50.6279 93.2877 50.7824C93.2198 50.9368 93.1859 51.15 93.1859 51.4219V52.9985C93.1859 53.2707 93.2198 53.4838 93.2877 53.6381C93.3555 53.7927 93.4651 53.9044 93.6167 53.9736C93.7683 54.0427 93.9774 54.0773 94.2445 54.0773H95.0586C95.3798 54.0773 95.6083 54.022 95.744 53.9114C95.8797 53.8006 95.9566 53.6025 95.9747 53.3167C95.9838 53.1968 96.0426 53.1369 96.1512 53.1369C96.2778 53.1369 96.3366 53.1991 96.3276 53.3236C96.3049 53.7155 96.1919 53.9989 95.9883 54.1741C95.7848 54.3493 95.4748 54.4368 95.0586 54.4368H94.2445C93.7558 54.4368 93.3984 54.3217 93.1723 54.0911C92.946 53.8606 92.833 53.4964 92.833 52.9985Z" fill="white"/>
<path fill-rule="evenodd" clip-rule="evenodd" d="M104.734 52.8741H106.646L105.69 50.5507L104.734 52.8741ZM107.581 54.2709C107.581 54.3309 107.543 54.3792 107.467 54.4161C107.44 54.4299 107.411 54.4368 107.379 54.4368C107.316 54.4368 107.272 54.4 107.245 54.3262L106.794 53.2336H106.773H104.593L104.142 54.3262C104.11 54.4 104.061 54.4368 103.994 54.4368C103.971 54.4368 103.942 54.4299 103.906 54.4161C103.834 54.3884 103.798 54.3378 103.798 54.264C103.798 54.2271 103.803 54.1994 103.812 54.181L105.481 50.1219C105.517 50.0297 105.584 49.9836 105.683 49.9836H105.696C105.786 49.9836 105.851 50.0297 105.892 50.1219L107.561 54.181C107.574 54.2132 107.581 54.2432 107.581 54.2709Z" fill="white"/>
<path fill-rule="evenodd" clip-rule="evenodd" d="M117.717 51.1799C117.717 50.8895 117.653 50.6775 117.525 50.5438C117.397 50.4101 117.188 50.3432 116.901 50.3432H115.498V52.2241H116.901C117.188 52.2241 117.397 52.1584 117.525 52.027C117.653 51.8956 117.717 51.6825 117.717 51.3874V51.1799ZM117.771 50.2879C117.969 50.4908 118.068 50.7882 118.068 51.1799V51.3874C118.068 51.7792 117.97 52.0766 117.774 52.2794C117.579 52.4824 117.287 52.5836 116.901 52.5836H115.498V54.257C115.498 54.377 115.439 54.4368 115.322 54.4368C115.205 54.4368 115.147 54.377 115.147 54.257V50.1634C115.147 50.0436 115.205 49.9836 115.322 49.9836H116.901C117.283 49.9836 117.573 50.0851 117.771 50.2879Z" fill="white"/>
<path fill-rule="evenodd" clip-rule="evenodd" d="M125.726 54.3884C125.696 54.3562 125.681 54.3123 125.681 54.257V50.1634C125.681 50.1082 125.696 50.0644 125.726 50.0321C125.756 49.9999 125.797 49.9836 125.849 49.9836C125.9 49.9836 125.941 49.9999 125.971 50.0321C126.001 50.0644 126.016 50.1082 126.016 50.1634V54.257C126.016 54.3123 126.001 54.3562 125.971 54.3884C125.941 54.4207 125.9 54.4368 125.849 54.4368C125.797 54.4368 125.756 54.4207 125.726 54.3884Z" fill="white"/>
<path fill-rule="evenodd" clip-rule="evenodd" d="M135.348 54.385C135.314 54.3505 135.297 54.3081 135.297 54.2574V50.3426H133.854C133.804 50.3426 133.762 50.3254 133.729 50.2909C133.695 50.2563 133.678 50.2139 133.678 50.1632C133.678 50.1079 133.695 50.0642 133.729 50.0319C133.762 49.9999 133.804 49.9836 133.854 49.9836H137.093C137.147 49.9836 137.19 49.9999 137.222 50.0319C137.253 50.0642 137.269 50.1079 137.269 50.1632C137.269 50.2139 137.253 50.2563 137.222 50.2909C137.19 50.3254 137.147 50.3426 137.093 50.3426H135.65V54.2574C135.65 54.3081 135.634 54.3505 135.602 54.385C135.571 54.4197 135.528 54.4368 135.473 54.4368C135.424 54.4368 135.382 54.4197 135.348 54.385Z" fill="white"/>
<path fill-rule="evenodd" clip-rule="evenodd" d="M144.334 52.8741H146.246L145.29 50.5507L144.334 52.8741ZM147.181 54.2709C147.181 54.3309 147.143 54.3792 147.067 54.4161C147.04 54.4299 147.01 54.4368 146.979 54.4368C146.916 54.4368 146.871 54.4 146.844 54.3262L146.393 53.2336H146.373H144.192L143.742 54.3262C143.71 54.4 143.661 54.4368 143.593 54.4368C143.571 54.4368 143.542 54.4299 143.506 54.4161C143.434 54.3884 143.398 54.3378 143.398 54.264C143.398 54.2271 143.403 54.1994 143.412 54.181L145.081 50.1219C145.117 50.0297 145.184 49.9836 145.283 49.9836H145.296C145.386 49.9836 145.451 50.0297 145.492 50.1219L147.161 54.181C147.174 54.2132 147.181 54.2432 147.181 54.2709Z" fill="white"/>
<path fill-rule="evenodd" clip-rule="evenodd" d="M154.795 54.257V50.1635C154.795 50.0436 154.853 49.9836 154.97 49.9836C155.087 49.9836 155.146 50.0436 155.146 50.1635V54.0773H157.205C157.322 54.0773 157.38 54.1372 157.38 54.257C157.38 54.377 157.322 54.4368 157.205 54.4368H154.97C154.853 54.4368 154.795 54.377 154.795 54.257Z" fill="white"/>
</g>
</g>
<defs>
<clipPath id="clip0">
<rect width="116.358" height="31.6033" fill="white" transform="translate(51.3656 28.1487)"/>
</clipPath>
</defs>
</svg>
