<svg width="230" height="88" viewBox="0 0 230 88" fill="none" xmlns="http://www.w3.org/2000/svg">
<g clip-path="url(#clip0)">
<path fill-rule="evenodd" clip-rule="evenodd" d="M74.0826 24.0638V63.7321H34.5722V24.0638H74.0826Z" fill="#00A59A"/>
<path fill-rule="evenodd" clip-rule="evenodd" d="M60.6867 48.5603H64.75C64.8039 48.5603 64.8565 48.5434 64.9003 48.5118C64.9441 48.4803 64.9768 48.4357 64.9938 48.3845L66.4513 44.0004C66.4522 43.9975 66.453 43.9945 66.4538 43.9915L67.7343 39.5856C67.7528 39.5212 67.7454 39.4521 67.7137 39.3931L67.6188 39.2135C67.5969 39.1723 67.5642 39.1379 67.5241 39.114C67.4841 39.09 67.4383 39.0774 67.3917 39.0775H62.2289C62.1678 39.0773 62.1087 39.0989 62.0621 39.1385C62.0155 39.178 61.9846 39.2328 61.9748 39.2931L61.2204 43.9927C61.2204 43.9949 61.2204 43.997 61.2204 43.9992L60.4339 48.2562C60.4269 48.2933 60.4282 48.3315 60.4377 48.3681C60.4472 48.4046 60.4646 48.4387 60.4888 48.4677C60.5129 48.4967 60.5432 48.5201 60.5774 48.5361C60.6116 48.5521 60.6489 48.5604 60.6867 48.5603ZM50.674 48.5603H54.7219C54.7759 48.5603 54.8285 48.5434 54.8723 48.5118C54.916 48.4803 54.9487 48.4357 54.9657 48.3845L56.4335 44.0004C56.4344 43.9975 56.4352 43.9945 56.4361 43.9915L57.7242 39.5856C57.7431 39.5214 57.7362 39.4523 57.705 39.3931L57.6074 39.2135C57.5856 39.1725 57.5531 39.1383 57.5133 39.1143C57.4736 39.0904 57.4281 39.0776 57.3816 39.0775H52.1803C52.1192 39.0773 52.0601 39.0989 52.0135 39.1385C51.967 39.178 51.936 39.2328 51.9263 39.2931L51.1667 43.994V43.9979L50.4226 48.2588C50.416 48.2956 50.4176 48.3334 50.4272 48.3695C50.4368 48.4057 50.4542 48.4393 50.4781 48.468C50.5021 48.4967 50.532 48.5199 50.5659 48.5358C50.5997 48.5518 50.6366 48.5601 50.674 48.5603ZM40.9308 48.5603H44.9954C45.0494 48.5603 45.102 48.5434 45.1457 48.5118C45.1895 48.4803 45.2222 48.4357 45.2392 48.3845L46.6967 44.0004C46.6976 43.9975 46.6985 43.9945 46.6993 43.9915L47.9797 39.5856C47.9982 39.5212 47.9909 39.4521 47.9592 39.3931L47.863 39.2135C47.8411 39.1725 47.8086 39.1383 47.7688 39.1143C47.7291 39.0904 47.6836 39.0776 47.6371 39.0775H42.473C42.4122 39.0776 42.3533 39.0994 42.307 39.1389C42.2608 39.1784 42.23 39.233 42.2203 39.2931L41.4658 43.9927C41.4659 43.9949 41.4659 43.997 41.4658 43.9992L40.6794 48.2562C40.6724 48.2932 40.6737 48.3313 40.6831 48.3678C40.6925 48.4042 40.7098 48.4382 40.7338 48.4672C40.7578 48.4962 40.7879 48.5196 40.8219 48.5357C40.856 48.5518 40.8932 48.5602 40.9308 48.5603Z" fill="white"/>
<path d="M95.3665 47.6326C95.3665 50.9543 92.8274 53.1983 88.741 53.1983C86.6112 53.1983 84.5674 52.5568 83.4293 51.4495L84.6841 49.031C85.5309 49.9343 86.8729 50.4295 88.3612 50.4295C90.5796 50.4295 91.9229 49.2928 91.9229 47.6326C91.9229 45.9723 90.6091 44.9228 88.5947 44.9228C87.6902 44.9228 86.9319 45.0973 86.2314 45.4758L85.3269 43.8156L90.1125 38.3371H84.1889V35.5979H94.4324V37.6674L89.938 42.4466C93.2367 42.5044 95.3665 44.6021 95.3665 47.6326ZM96.4468 44.2236C96.4468 38.8914 100.124 35.3657 105.669 35.3657C108.501 35.3657 110.806 36.2984 112.528 38.1626L110.427 40.2604C109.433 39.0081 107.771 38.1049 105.699 38.1049C102.196 38.1049 99.8609 40.5811 99.8609 44.2531C99.8609 47.9815 102.225 50.459 105.728 50.459C108.091 50.459 109.696 49.4095 110.806 47.7198L113.053 49.7008C111.39 51.9743 108.851 53.1983 105.669 53.1983C100.153 53.1983 96.4468 49.6135 96.4468 44.2236ZM113.374 46.6421C113.374 42.7083 116.088 40.0859 120.175 40.0859C124.232 40.0859 126.945 42.7083 126.945 46.6421C126.945 50.5758 124.232 53.2265 120.175 53.2265C116.118 53.1983 113.374 50.5758 113.374 46.6421ZM123.618 46.6421C123.618 44.3403 122.217 42.8251 120.175 42.8251C118.073 42.8251 116.702 44.3403 116.702 46.6421C116.702 48.9438 118.101 50.459 120.175 50.459C122.247 50.459 123.618 48.9438 123.618 46.6421ZM148.514 45.0101V52.9648H145.304V45.5348C145.304 43.9028 144.283 42.8251 142.706 42.8251C141.16 42.8251 140.109 43.9028 140.109 45.5348V52.9648H136.898V45.5348C136.898 43.9028 135.876 42.8251 134.301 42.8251C132.754 42.8251 131.703 43.9028 131.703 45.5348V52.9648H128.493V40.3194H131.586L131.645 41.8346C132.55 40.6979 133.892 40.0859 135.439 40.0859C137.103 40.0859 138.445 40.7851 139.262 41.9796C140.167 40.7274 141.655 40.0859 143.349 40.0859C146.442 40.0859 148.514 42.0668 148.514 45.0101ZM170.636 45.0101V52.9648H167.428V45.5348C167.428 43.9028 166.402 42.8251 164.824 42.8251C163.284 42.8251 162.231 43.9028 162.231 45.5348V52.9648H159.021V45.5348C159.021 43.9028 157.999 42.8251 156.424 42.8251C154.877 42.8251 153.826 43.9028 153.826 45.5348V52.9648H150.616V40.3194H153.709L153.767 41.8346C154.673 40.6979 156.015 40.0859 157.562 40.0859C159.225 40.0859 160.568 40.7851 161.385 41.9796C162.29 40.7274 163.772 40.0859 165.465 40.0859C168.596 40.0859 170.636 42.0668 170.636 45.0101ZM183.273 45.0101V52.9648H180.207L180.156 51.1583C179.309 52.4695 177.846 53.1983 176.294 53.1983C173.677 53.1983 171.893 51.624 171.893 49.2646C171.893 46.8166 174.049 45.2141 177.295 45.2141C178.167 45.2141 179.129 45.3013 180.092 45.5053V45.2718C180.092 43.5821 178.95 42.5621 177.025 42.5621C175.832 42.5621 174.87 42.9124 174.087 43.5821L172.676 41.7179C174.049 40.6106 175.627 40.0859 177.846 40.0859C181.092 40.0859 183.273 42.0386 183.273 45.0101ZM180.066 47.6916C179.277 47.5221 178.473 47.4339 177.667 47.4286C176.153 47.4286 175.19 48.1278 175.19 49.2055C175.19 50.2255 175.858 50.9248 177.179 50.9248C178.667 50.9248 180.066 49.7598 180.066 47.6916ZM184.852 51.7125L186.045 49.7893C187.251 50.4885 188.444 50.7208 189.689 50.7208C190.869 50.7208 191.677 50.2255 191.677 49.4686C191.677 48.7103 190.779 48.2741 189.522 47.9533L188.47 47.6621C186.34 47.1078 184.877 46.2636 184.877 44.2813C184.877 41.7756 186.866 40.1154 189.868 40.1154C191.767 40.1154 193.396 40.5234 194.654 41.3676L193.319 43.4653C192.332 42.9275 191.224 42.6473 190.099 42.6506C188.97 42.6506 188.149 43.0868 188.149 43.7861C188.149 44.5443 188.932 44.8933 190.048 45.1846L191.1 45.4771C193.255 46.0301 194.975 47.0206 194.975 49.2646C194.975 51.6535 192.87 53.256 189.689 53.256C187.713 53.1983 186.019 52.703 184.852 51.7125Z" fill="white"/>
</g>
<defs>
<clipPath id="clip0">
<rect width="160.377" height="39.7734" fill="white" transform="translate(34.5722 24.0638)"/>
</clipPath>
</defs>
</svg>
