<?xml version="1.0" encoding="utf-8"?>
<!-- Generator: Adobe Illustrator 25.0.0, SVG Export Plug-In . SVG Version: 6.00 Build 0)  -->
<svg version="1.1" id="图层_1" xmlns="http://www.w3.org/2000/svg" xmlns:xlink="http://www.w3.org/1999/xlink" x="0px" y="0px"
	 viewBox="0 0 230 87" style="enable-background:new 0 0 230 87;" xml:space="preserve">
<style type="text/css">
	.st0{fill:#FFFFFF;}
</style>
<g>
	<path class="st0" d="M43.4,42.1c-0.8-0.6-1.5-1.2-2.3-1.8c17.2-22.6,53.2-23,70.8,1.3c-2.2,1.2-4.3,2.4-6.6,3.7
		C96.5,34.2,85,29.1,70.8,30.9C61.9,32,54.6,36.3,48.6,43c0.5,0.3,0.9,0.5,1.4,0.8c8.1-8.9,18.1-13,30-11.7
		c10.2,1.1,18.5,6.6,23.8,14.1c-2.2,1.2-4.4,2.5-6.6,3.7c-5.2-6.8-12-10.6-20.6-10.8c-8.6-0.2-15.5,3.3-21,9.8
		c-0.8-0.6-1.5-1.2-2.2-1.8c9.9-13.4,31.9-15.6,44.6-1.1c0.4-0.2,0.9-0.5,1.4-0.8c-6.8-7.3-15-10.9-24.9-10.4
		c-9.9,0.5-17.7,5-23.7,12.8c-2.2-1.2-4.4-2.5-6.7-3.7c7.7-10.1,17.8-15.8,30.5-16.2c12.7-0.5,23.1,4.4,31.5,13.9
		c0.4-0.2,0.8-0.5,1.4-0.8c-5.5-6.3-12.3-10.7-20.3-12.9c-8-2.2-16.1-2.1-24,0.5C55.2,30.9,48.6,35.5,43.4,42.1z"/>
	<path class="st0" d="M53.2,52.7c0.9-0.7,1.6-1.2,2.3-1.8c5.3,6.3,12.1,9.8,20.4,9.8c8.3,0,15.1-3.4,20.4-9.8
		c0.7,0.6,1.5,1.1,2.3,1.8c-5.3,6.5-12,10.2-20.3,10.9C68.2,64.3,59.9,60.6,53.2,52.7z"/>
	<path class="st0" d="M160.1,39.8c-1.5,0-2.9,0-4.4,0c-0.1,0.7-0.2,1.5-0.4,2.3c1.8,0,3.5,0,5.2,0c-0.1,0.6-0.2,1.1-0.2,1.7
		c-2.5,0-4.9,0-7.5,0c0.2-1.3,0.4-2.6,0.5-3.9c-2.1,0-4.2,0-6.4,0c-0.1,0.7-0.2,1.4-0.4,2.2c1.8,0,3.5,0,5.2,0
		c-0.1,0.6-0.1,1.1-0.2,1.7c-2.5,0-4.9,0-7.5,0c0.5-3.2,1-6.4,1.4-9.5c2.5,0,5,0,7.5,0c-0.1,0.5-0.1,1-0.2,1.6c-1.7,0-3.5,0-5.2,0
		c-0.1,0.8-0.2,1.4-0.3,2.2c2.1,0,4.2,0,6.4,0c0.2-1.2,0.4-2.5,0.6-3.8c2.5,0,4.9,0,7.5,0c-0.1,0.5-0.1,1-0.2,1.6
		c-1.7,0-3.5,0-5.2,0c-0.1,0.8-0.2,1.4-0.3,2.2c1.5,0,2.9,0,4.5,0C160.3,38.7,160.2,39.3,160.1,39.8z"/>
	<path class="st0" d="M67.5,49.3c0.1,0.8,0.1,1.4,0.2,2c-0.3,0.4-0.6,0.9-0.9,1.4c-0.6,1.1-0.3,1.7,0.9,2c1.6,0.4,3.1,0.1,4.6-0.2
		c3.8-0.9,7.3-2.5,10.4-4.8c0.8-0.6,1.6-1.4,2.3-2.2c0.4-0.4,0.6-0.9,0.8-1.4c0.3-0.7,0.1-1.3-0.7-1.5c-0.8-0.2-1.6-0.2-2.4-0.3
		c-0.2,0-0.5,0-0.7,0.1c-0.5-0.5-1-0.9-1.6-1.4c1.8-0.3,3.4-0.5,5,0c1.9,0.6,2.6,2.1,1.8,3.9c-0.5,1.2-1.3,2.1-2.2,2.9
		c-0.8,0.7-1.7,1.3-2.5,2c-0.3,0.2-0.6,0.5-0.8,0.9c-1.5,3-4.7,4.4-7.9,3.5c-0.5-0.1-1-0.1-1.5,0c-1.5,0.3-2.9,0.5-4.5,0.3
		c-0.3-0.1-0.6-0.1-0.9-0.2c-2-0.6-2.7-2.1-1.9-4C65.7,51.2,66.5,50.3,67.5,49.3z"/>
	<path class="st0" d="M73.8,53.3c-1.2,0.2-2.2,0.5-3.2,0.7c-1.9-2.3-2.1-5.4-0.6-7.8c1.6-2.5,4.5-3.7,7.4-3c2.8,0.6,4.8,3,5.1,5.9
		c-0.9,0.6-1.8,1.1-2.8,1.8c0.2-1.4,0-2.6-0.8-3.6c-0.6-0.7-1.3-1.2-2.1-1.4c-1.7-0.5-3.6,0.4-4.5,1.9
		C71.3,49.6,71.7,51.3,73.8,53.3z"/>
	<path class="st0" d="M179.9,38.5c-0.2,0.9-0.3,1.7-0.5,2.4c-0.2,0.9-0.7,1.6-1.5,2.1c-1.4,1-2.9,1.2-4.5,0.8
		c-1.6-0.4-2.4-1.5-2.3-3.1c0.1-1.1,0.3-2.2,0.5-3.3c0.2-1.1,0.9-1.9,1.8-2.5c1.8-1.1,4.4-1,5.8,0.2c0.1,0.1,0.1,0.2,0.3,0.3
		c-0.6,0.4-1.1,0.8-1.7,1.3c-0.6-0.5-1.2-0.9-2-0.8c-1,0.1-1.8,0.5-2,1.5c-0.2,1.1-0.4,2.3-0.5,3.5c-0.1,0.7,0.3,1.1,0.9,1.3
		c1.4,0.5,2.8-0.4,2.9-2c-0.6,0-1.2,0-1.9,0c0.1-0.6,0.1-1.1,0.2-1.6C177,38.5,178.4,38.5,179.9,38.5z"/>
	<path class="st0" d="M181.4,34.3c2.6,0,5,0,7.5,0c-0.1,0.5-0.1,1-0.2,1.6c-1.7,0-3.4,0-5.2,0c-0.1,0.8-0.2,1.4-0.4,2.2
		c1.5,0,2.9,0,4.5,0c-0.1,0.6-0.2,1.1-0.3,1.7c-1.5,0-2.9,0-4.4,0c-0.1,0.8-0.2,1.5-0.4,2.3c1.8,0,3.5,0,5.2,0
		c-0.1,0.6-0.2,1.1-0.2,1.6c-0.6,0.2-6.6,0.3-7.5,0C180.4,40.6,180.9,37.4,181.4,34.3z"/>
	<path class="st0" d="M135.7,34.3c0.8,0,1.5,0,2.2,0c-0.2,1-0.3,2-0.4,3c-0.2,1-0.3,2.1-0.5,3.1c-0.1,1.2,0.5,1.8,1.7,1.8
		c1.2,0,2-0.7,2.1-1.8c0.3-1.8,0.6-3.6,0.8-5.4c0-0.2,0.1-0.4,0.1-0.7c0.7,0,1.4,0,2.2,0c-0.1,0.6-0.1,1.1-0.2,1.6
		c-0.2,1.4-0.5,2.9-0.6,4.3c-0.2,1.9-1.3,2.9-3,3.5c-1,0.3-2.1,0.4-3.1,0.1c-1.7-0.5-2.4-1.6-2.2-3.3c0.2-1.5,0.4-2.9,0.6-4.3
		C135.5,35.5,135.6,34.9,135.7,34.3z"/>
	<path class="st0" d="M169,46.8c0.6,0,1.2,0,1.8,0c0.9,3.2,1.8,6.4,2.7,9.6c-0.8,0-1.5,0-2.4,0c-0.5-2.2-1-4.3-1.6-6.7
		c-1.3,2.4-2.5,4.5-3.7,6.7c-0.8,0-1.5,0-2.4,0C165.3,53.2,167.1,50,169,46.8z"/>
	<path class="st0" d="M134.1,56.5c-0.7,0-1.4,0-2.2,0c1.8-3.2,3.6-6.4,5.4-9.6c0.6,0,1.2,0,1.8,0c0.9,3.2,1.8,6.3,2.7,9.6
		c-0.8,0-1.6,0-2.4,0c-0.5-2.1-1-4.3-1.6-6.4c-0.1,0-0.1,0-0.2,0C136.5,52.1,135.3,54.3,134.1,56.5z"/>
	<path class="st0" d="M128.8,32.4c-0.2,0.6-0.4,1.2-0.6,1.9c-0.6,0-1.3,0-2,0c-0.1,0.6-0.2,1-0.3,1.6c-0.9,0-1.9,0-2.9,0
		c-0.4,2.7-0.8,5.3-1.2,7.9c-0.8,0-1.5,0-2.3,0c0.4-2.6,0.8-5.2,1.2-7.9c-1,0-1.9,0-2.9,0c0.1-0.6,0.1-1.1,0.2-1.7
		c2.7,0,5.4,0,8.1,0c0.1-0.6,0.2-1.1,0.3-1.6C127.1,32.5,128,32.5,128.8,32.4L128.8,32.4z"/>
	<path class="st0" d="M132.5,47.9c-0.6,0.4-1.1,0.8-1.6,1.2c-0.7-0.6-1.4-0.8-2.2-0.6c-0.7,0.2-1.3,0.6-1.4,1.4
		c-0.2,1.1-0.4,2.3-0.5,3.5c-0.1,0.9,0.5,1.4,1.4,1.4c0.8,0.1,1.4-0.2,2-0.6c0.4,0.4,0.8,0.8,1.2,1.3c-1.2,1.3-4.2,1.4-5.5,0.6
		c-0.9-0.6-1.5-1.4-1.4-2.5c0.1-1.2,0.3-2.5,0.5-3.7c0.5-2.5,3.4-3.5,5.3-3.2C131.1,46.9,131.9,47.2,132.5,47.9z"/>
	<path class="st0" d="M159.8,48.5c-1,0-1.9,0-2.9,0c0.1-0.6,0.1-1.1,0.2-1.7c2.7,0,5.4,0,8.2,0c-0.1,0.6-0.2,1.1-0.3,1.7
		c-1,0-1.9,0-2.9,0c-0.4,2.7-0.8,5.3-1.2,7.9c-0.8,0-1.5,0-2.3,0C159,53.8,159.4,51.2,159.8,48.5z"/>
	<path class="st0" d="M153.7,46.8c0.8,0,1.5,0,2.3,0c-0.5,3.2-1,6.4-1.4,9.6c-0.7,0-1.4,0-2.3,0C152.8,53.2,153.2,50.1,153.7,46.8z"
		/>
	<path class="st0" d="M176.9,54.8c-0.7,0-1.4,0-2.2,0c0.4-2.7,0.8-5.3,1.2-7.9c0.7,0,1.4,0,2.3,0C177.8,49.5,177.4,52.1,176.9,54.8
		L176.9,54.8z"/>
	<path class="st0" d="M177,54.7c1.7,0,3.4,0,5.2,0c-0.1,0.6-0.2,1.2-0.3,1.7c-1.7,0-3.4,0-5.1,0C176.8,55.9,176.9,55.3,177,54.7
		L177,54.7z"/>
	<path class="st0" d="M73.9,49.9c0.5-0.7,1.1-1.4,1.7-2.1c0.5,0.7,1.1,1.4,1.7,2.1c-0.5,0.7-1.1,1.4-1.7,2.1
		C75.1,51.3,74.5,50.6,73.9,49.9z"/>
	<path class="st0" d="M128.8,32.4c0.1-0.4,0.2-0.9,0.4-1.4c0.5,0,1,0,1.6,0c0,0.4-0.1,0.7-0.1,1.2C130,32.3,129.4,32.3,128.8,32.4
		L128.8,32.4z"/>
	<path class="st0" d="M133.3,38.9c0.8-0.7,1.2-1.7,0.9-2.8c-0.3-1.1-1.2-1.7-2.2-1.8c-1-0.1-2.1,0-3.2,0c-0.1,0.5-0.1,1-0.2,1.5
		c-0.7,0-1.5,0.1-2.3,0.1c-0.4,2.6-0.8,5.2-1.2,7.9c0.8,0,1.5,0,2.3,0c0.2-1.3,0.4-2.5,0.6-3.7c0.5,0,1,0,1.5,0
		c0.5,1.3,1.1,2.5,1.6,3.7c0.9,0,1.7,0,2.6,0c-0.6-1.4-1.2-2.7-1.8-4C132.4,39.5,132.9,39.2,133.3,38.9z M131.6,37.9
		c-0.3,0.2-0.6,0.4-1,0.5c-0.8,0.1-1.5,0-2.4,0c0.1-0.9,0.3-1.7,0.4-2.6c0,0,0,0,0,0l0,0c0,0,0,0,0,0c0.5,0,0.9,0.1,1.4,0.1
		c0.3,0,0.7,0,1,0.1c0.5,0.1,0.8,0.3,0.9,0.8C132.1,37.2,132,37.6,131.6,37.9z"/>
	<path class="st0" d="M168.7,34.4c-0.4-0.1-0.9-0.2-1.4-0.2c-1.1,0-2.3,0-3.5,0c-0.2,0-0.4,0-0.7,0.1c-0.5,3.2-0.9,6.3-1.4,9.4
		c0.1,0.1,0.1,0.1,0.2,0.1c1.6,0,3.3,0.1,4.9-0.1c1.7-0.2,2.9-1.3,3.3-3c0.3-1.1,0.4-2.3,0.5-3.5C170.8,35.8,170,34.8,168.7,34.4z
		 M168.4,37.5c-0.1,1.1-0.3,2.1-0.5,3.1c-0.2,0.8-0.8,1.3-1.6,1.4c-0.7,0.1-1.4,0-2.2,0c0.3-2,0.6-4,0.9-6.1c0.8,0,1.5-0.1,2.1,0
		C168,36.1,168.5,36.6,168.4,37.5z"/>
	<path class="st0" d="M149.6,46.9c-1.8-0.2-3.6,0-5.5,0c-0.5,3.1-0.9,6.3-1.4,9.5c0.8,0,1.5,0,2.3,0c0.1-0.6,0.2-1.2,0.3-1.8
		c0.1-0.6,0.2-1.2,0.3-1.8c0.8,0,1.5,0,2.2,0c1.3,0,2.5-0.4,3.4-1.5C152.7,49.7,151.9,47.2,149.6,46.9z M149.3,50.5
		c-0.3,0.2-0.6,0.5-0.9,0.5c-0.8,0.1-1.6,0-2.6,0c0.1-0.8,0.2-1.6,0.4-2.5c0.8,0,1.6,0,2.4,0c0.5,0,0.8,0.3,1,0.7
		C149.7,49.7,149.6,50.2,149.3,50.5z"/>
</g>
</svg>
