<svg width="230" height="87" viewBox="0 0 230 87" fill="none" xmlns="http://www.w3.org/2000/svg">
<g clip-path="url(#clip0)">
<path d="M118.127 42.1202C117.901 42.2476 117.621 42.3113 117.298 42.3113C117.191 42.3113 116.943 42.3007 116.534 42.2582V43.4158C116.889 43.5114 117.245 43.5432 117.611 43.5432C118.17 43.5432 118.633 43.3945 119.01 43.1078C119.387 42.8211 119.721 42.375 120 41.7591L123.165 34.6227L121.669 34.6439L119.753 39.3166L117.89 34.6439H116.394L118.989 40.7609L118.719 41.3662C118.547 41.7379 118.343 41.9927 118.127 42.1202Z" fill="white"/>
<path d="M125.523 40.1768C125.76 40.506 126.083 40.7608 126.47 40.9414C126.868 41.1219 127.299 41.2175 127.783 41.2175C128.699 41.2175 129.452 40.9095 130.044 40.2617C130.636 39.6245 130.948 38.8281 130.948 37.8723C130.948 36.9165 130.647 36.12 130.033 35.4829C129.42 34.8457 128.655 34.5271 127.74 34.5271L127.794 34.5165C126.858 34.5165 126.126 34.8244 125.609 35.4404V31.2775H124.22V41.0582H125.512V40.1768H125.523ZM126.115 36.3324C126.502 35.9714 126.965 35.7802 127.504 35.7802C128.074 35.7802 128.548 35.9714 128.935 36.3643C129.323 36.7572 129.506 37.2563 129.506 37.8617C129.506 38.4776 129.323 38.9874 128.935 39.3803C128.548 39.7732 128.106 39.9856 127.536 39.9856H127.514C126.976 39.9856 126.513 39.8157 126.126 39.4652C125.738 39.1148 125.544 38.5944 125.544 37.9041C125.544 37.2139 125.727 36.6935 126.115 36.3324Z" fill="white"/>
<path d="M113.154 49.8939H113.143C112.336 49.8939 111.69 50.1594 111.195 50.6798V50.0426H109.903V56.4781H111.292V52.6338C111.292 52.1984 111.421 51.8479 111.701 51.5718C111.981 51.2957 112.336 51.1577 112.777 51.1577C113.197 51.1577 113.541 51.3063 113.811 51.5718C114.08 51.8479 114.209 52.209 114.209 52.655V56.4781H115.598V52.4639C115.598 51.6993 115.382 51.0833 114.952 50.6161C114.521 50.1488 113.907 49.8939 113.154 49.8939Z" fill="white"/>
<path d="M120.216 49.8832C119.279 49.8832 118.483 50.2124 117.837 50.8602C117.191 51.508 116.857 52.3045 116.857 53.2496C116.857 54.2054 117.191 55.0019 117.847 55.639C118.504 56.2762 119.344 56.6054 120.345 56.6054C121.335 56.6054 122.196 56.2656 122.939 55.5753L122.283 54.6408C121.701 55.1505 121.066 55.3948 120.388 55.3948C119.817 55.3948 119.344 55.2461 118.956 54.9488C118.569 54.6514 118.332 54.2266 118.246 53.6956H123.09C123.208 53.3771 123.219 52.8354 123.219 52.8354C123.219 51.9859 122.928 51.285 122.358 50.7221C121.798 50.1593 121.077 49.8832 120.216 49.8832ZM118.278 52.6337C118.386 52.1558 118.612 51.7735 118.956 51.4867C119.301 51.2 119.688 51.062 120.151 51.0513C120.614 51.0513 121.002 51.2 121.325 51.4867C121.637 51.7735 121.798 52.1558 121.809 52.6337H118.278Z" fill="white"/>
<path d="M135.707 41.2282C136.697 41.2282 137.558 40.8884 138.301 40.1981L137.644 39.2636C137.063 39.7733 136.428 40.0176 135.75 40.0176C135.179 40.0176 134.705 39.8689 134.318 39.5716C133.93 39.2742 133.693 38.8494 133.607 38.3184H138.452C138.581 37.9786 138.581 37.4583 138.581 37.4583C138.581 36.6087 138.29 35.9078 137.72 35.3449C137.149 34.7821 136.439 34.506 135.577 34.506C134.641 34.506 133.844 34.8352 133.198 35.483C132.552 36.1308 132.219 36.9273 132.219 37.8724C132.219 38.8282 132.552 39.6247 133.209 40.2618C133.866 40.9097 134.705 41.2282 135.707 41.2282ZM134.307 36.1202C134.652 35.8334 135.039 35.6954 135.502 35.6848C135.965 35.6848 136.352 35.8334 136.675 36.1202C136.988 36.4069 137.149 36.7892 137.16 37.2671H133.629C133.737 36.7786 133.963 36.4069 134.307 36.1202Z" fill="white"/>
<path d="M127.859 55.3524C127.439 55.3524 127.116 55.278 126.912 55.1081C126.696 54.9382 126.599 54.6515 126.599 54.2479V51.2319H128.526V50.0425H126.599V48.3646H125.2V50.0425H124.145V51.2319H125.2V54.3647C125.2 55.1081 125.415 55.671 125.835 56.032C126.255 56.3931 126.836 56.5843 127.59 56.5843C127.923 56.5843 128.3 56.5312 128.742 56.4356V55.278C128.354 55.3205 128.085 55.3524 127.88 55.3524H127.859Z" fill="white"/>
<path d="M137.235 54.1737L135.233 49.8939H134.759L132.789 54.2268L131.078 50.0426H129.603L132.488 56.5843H132.961L134.996 52.3258L137.031 56.5843H137.515L140.389 50.0426H138.914L137.235 54.1737Z" fill="white"/>
<path d="M144.211 49.8939C143.242 49.8939 142.435 50.2231 141.778 50.8603C141.121 51.4975 140.788 52.294 140.788 53.2391C140.788 54.1843 141.121 54.9701 141.778 55.6179C142.435 56.2551 143.242 56.5843 144.211 56.595C145.158 56.595 145.966 56.2657 146.644 55.6179C147.322 54.9701 147.645 54.1737 147.645 53.2285C147.645 52.294 147.3 51.4975 146.622 50.8497C145.966 50.2125 145.158 49.9045 144.211 49.8939ZM145.621 54.7153C145.234 55.1082 144.76 55.2993 144.189 55.2993C143.608 55.2993 143.134 55.1082 142.747 54.7153C142.359 54.3223 142.176 53.8232 142.176 53.2391C142.176 52.6338 142.359 52.1453 142.747 51.7524C143.134 51.3594 143.608 51.1683 144.189 51.147H144.2C144.771 51.1577 145.244 51.3594 145.632 51.7417C146.019 52.1347 146.202 52.6338 146.202 53.2285C146.202 53.8232 145.998 54.3223 145.621 54.7153Z" fill="white"/>
<path d="M150.218 50.8708V50.0319H148.926V56.4674H150.315V53.0266C150.315 52.4638 150.498 52.039 150.853 51.7204C151.208 51.4124 151.66 51.2531 152.198 51.2531H152.618V50.0425C152.468 50 152.295 49.9788 152.102 49.9788C151.316 49.9788 150.681 50.2761 150.218 50.8708Z" fill="white"/>
<path d="M141.25 37.6599C141.25 37.0971 141.433 36.6723 141.789 36.3537C142.144 36.0457 142.596 35.8864 143.134 35.8864H143.554V34.6758C143.403 34.6333 143.231 34.6121 143.037 34.6121C142.241 34.6121 141.606 34.92 141.143 35.5147V34.6758H139.851V41.1007H141.24V37.6599H141.25Z" fill="white"/>
<path d="M155.299 46.6548H153.91V56.4674H155.299V46.6548Z" fill="white"/>
<path d="M156.978 52.8567L159.594 50.0425H157.882L155.342 52.8461L158.173 56.4674H159.842L156.978 52.8567Z" fill="white"/>
<path d="M115.587 34.6653H113.864L111.335 37.4795L114.166 41.1008H115.834L112.971 37.4901L115.587 34.6653Z" fill="white"/>
<path d="M111.292 31.2875H109.903V41.1001H111.292V31.2875Z" fill="white"/>
<path d="M84.4465 43.5684L102.093 53.6627C102.713 54.0144 103.482 53.5668 103.482 52.8632V34.263C103.482 33.5488 102.713 33.1118 102.093 33.4635L84.4465 43.5684Z" fill="#31CB9E"/>
<path d="M101.701 28.9931L89.6474 20.1337C89.0876 19.7213 88.2862 20.0174 88.1435 20.6728L83.7415 40.3898L101.591 30.5155C102.184 30.1877 102.239 29.3948 101.701 28.9931Z" fill="#31CB9E"/>
<path d="M89.6361 66.9958L101.7 58.1343C102.238 57.7325 102.183 56.9394 101.601 56.6116L83.7415 46.735L88.1432 66.4565C88.2749 67.1121 89.0872 67.3976 89.6361 66.9958Z" fill="#31CB9E"/>
<path d="M79.8618 43.2153L84.4243 21.7714C84.6039 20.9286 83.6533 20.3205 82.9774 20.8432L71.2964 29.8475C70.6944 30.3063 70.3459 31.0318 70.3459 31.7892V54.6307C70.3459 55.3882 70.6944 56.1137 71.2964 56.5724L82.9774 65.5767C83.6533 66.0995 84.6039 65.4914 84.4243 64.6486L79.8618 43.2153Z" fill="#31CB9E"/>
</g>
<defs>
<clipPath id="clip0">
<rect width="89.5387" height="47.2369" fill="white" transform="translate(70.3459 19.944)"/>
</clipPath>
</defs>
</svg>
