<svg width="230" height="87" viewBox="0 0 230 87" fill="none" xmlns="http://www.w3.org/2000/svg">
<g clip-path="url(#clip0)">
<path fill-rule="evenodd" clip-rule="evenodd" d="M85.6913 52.8343V41.7384H81.4482V39.3003H92.928V41.7384H88.6857V52.8343H85.6913Z" fill="white"/>
<path fill-rule="evenodd" clip-rule="evenodd" d="M99.3784 48.0732C99.3784 47.1647 99.1959 46.4864 98.8317 46.0389C98.4667 45.5906 97.9447 45.3669 97.2663 45.3669C95.858 45.3669 95.1551 46.269 95.1551 48.0732C95.1551 49.8774 95.858 50.7803 97.2663 50.7803C98.6738 50.7803 99.3784 49.8774 99.3784 48.0732ZM94.6362 52.383C93.8808 51.9799 93.2993 51.4103 92.8891 50.674C92.4805 49.9393 92.2758 49.0721 92.2758 48.0732C92.2758 47.0751 92.4805 46.2079 92.8891 45.4724C93.2993 44.7369 93.8808 44.1704 94.6362 43.7737C95.3915 43.377 96.2682 43.1779 97.2663 43.1779C98.2652 43.1779 99.1411 43.377 99.8965 43.7737C100.651 44.1704 101.233 44.7369 101.643 45.4724C102.052 46.2079 102.258 47.0751 102.258 48.0732C102.258 49.0721 102.052 49.9393 101.643 50.674C101.233 51.4103 100.651 51.9799 99.8965 52.383C99.1411 52.786 98.2652 52.9876 97.2663 52.9876C96.2682 52.9876 95.3915 52.786 94.6362 52.383Z" fill="white"/>
<path fill-rule="evenodd" clip-rule="evenodd" d="M118.037 44.1574C118.561 44.8096 118.824 45.8085 118.824 47.1517V52.8349H115.925V47.2485C115.925 46.6083 115.826 46.1481 115.628 45.8656C115.43 45.5848 115.093 45.4435 114.619 45.4435C114.07 45.4435 113.641 45.6355 113.333 46.0195C113.027 46.4036 112.873 46.9415 112.873 47.6318V52.8349H109.975V47.2485C109.975 46.6083 109.875 46.1481 109.677 45.8656C109.478 45.5848 109.143 45.4435 108.669 45.4435C108.118 45.4435 107.69 45.6355 107.383 46.0195C107.076 46.4036 106.922 46.9415 106.922 47.6318V52.8349H104.023V43.4092H106.846V44.6755C107.14 44.1891 107.534 43.8186 108.026 43.5624C108.518 43.3069 109.085 43.1783 109.724 43.1783C111.12 43.1783 112.054 43.7607 112.528 44.9254C112.834 44.3875 113.263 43.9622 113.814 43.6488C114.364 43.3354 114.972 43.1783 115.637 43.1783C116.712 43.1783 117.512 43.5052 118.037 44.1574Z" fill="white"/>
<path fill-rule="evenodd" clip-rule="evenodd" d="M127.654 48.0732C127.654 47.1647 127.472 46.4864 127.107 46.0389C126.743 45.5906 126.221 45.3669 125.542 45.3669C124.134 45.3669 123.431 46.269 123.431 48.0732C123.431 49.8774 124.134 50.7803 125.542 50.7803C126.95 50.7803 127.654 49.8774 127.654 48.0732ZM122.912 52.383C122.157 51.9799 121.575 51.4103 121.165 50.674C120.757 49.9393 120.552 49.0721 120.552 48.0732C120.552 47.0751 120.757 46.2079 121.165 45.4724C121.575 44.7369 122.157 44.1704 122.912 43.7737C123.668 43.377 124.544 43.1779 125.542 43.1779C126.541 43.1779 127.417 43.377 128.172 43.7737C128.927 44.1704 129.509 44.7369 129.919 45.4724C130.328 46.2079 130.534 47.0751 130.534 48.0732C130.534 49.0721 130.328 49.9393 129.919 50.674C129.509 51.4103 128.927 51.9799 128.172 52.383C127.417 52.786 126.541 52.9876 125.542 52.9876C124.544 52.9876 123.668 52.786 122.912 52.383Z" fill="white"/>
<path fill-rule="evenodd" clip-rule="evenodd" d="M135.303 52.1433C134.286 51.5665 133.505 50.7548 132.962 49.7051C132.418 48.6554 132.146 47.4399 132.146 46.0578C132.146 44.6757 132.418 43.4602 132.962 42.4097C133.505 41.3608 134.286 40.5523 135.303 39.9819C136.321 39.413 137.514 39.1282 138.884 39.1282C139.78 39.1282 140.637 39.2662 141.456 39.5407C142.275 39.8161 142.947 40.1961 143.471 40.6833L142.512 42.8136C141.924 42.3661 141.337 42.04 140.756 41.8345C140.173 41.6298 139.568 41.5274 138.941 41.5274C137.738 41.5274 136.813 41.9115 136.167 42.6787C135.521 43.4467 135.198 44.5733 135.198 46.0578C135.198 47.5423 135.521 48.6721 136.167 49.4465C136.813 50.22 137.738 50.6072 138.941 50.6072C139.568 50.6072 140.173 50.5057 140.756 50.3002C141.337 50.0955 141.924 49.7694 142.512 49.3211L143.471 51.4522C142.947 51.9386 142.275 52.3194 141.456 52.5939C140.637 52.8692 139.78 53.0073 138.884 53.0073C137.514 53.0073 136.321 52.7193 135.303 52.1433Z" fill="white"/>
<path fill-rule="evenodd" clip-rule="evenodd" d="M153.742 44.1665C154.291 44.8258 154.567 45.8208 154.567 47.1521V52.8345H151.668V47.2862C151.668 46.6467 151.549 46.1794 151.313 45.885C151.077 45.5907 150.708 45.4431 150.209 45.4431C149.608 45.4431 149.126 45.6359 148.761 46.0191C148.396 46.4031 148.213 46.9157 148.213 47.5552V52.8345H145.315V39.3005H148.213V44.6561C148.546 44.1705 148.971 43.8023 149.49 43.5532C150.008 43.3033 150.586 43.1779 151.227 43.1779C152.353 43.1779 153.192 43.508 153.742 44.1665Z" fill="white"/>
<path fill-rule="evenodd" clip-rule="evenodd" d="M161.766 50.4246C162.112 50.047 162.284 49.5574 162.284 48.956V48.6299H161.958C160.921 48.6299 160.195 48.7132 159.779 48.8798C159.363 49.0465 159.155 49.3472 159.155 49.7812C159.155 50.1271 159.273 50.4151 159.51 50.6452C159.746 50.8753 160.044 50.9911 160.403 50.9911C160.965 50.9911 161.42 50.8031 161.766 50.4246ZM164.04 44.1765C164.712 44.8422 165.048 45.8728 165.048 47.2676V52.8342H162.304V51.433C162.112 51.9194 161.791 52.2994 161.344 52.5748C160.895 52.8501 160.37 52.9873 159.769 52.9873C159.129 52.9873 158.55 52.8588 158.032 52.6033C157.514 52.3478 157.104 51.9892 156.803 51.529C156.502 51.0681 156.352 50.5563 156.352 49.993C156.352 49.3019 156.528 48.7577 156.88 48.361C157.232 47.9643 157.798 47.6762 158.579 47.4977C159.359 47.3184 160.428 47.2288 161.785 47.2288H162.284V46.8828C162.284 46.3203 162.162 45.9228 161.919 45.6927C161.676 45.4626 161.253 45.3476 160.653 45.3476C160.192 45.3476 159.679 45.4309 159.116 45.5967C158.553 45.7633 158.015 45.9934 157.504 46.2878L156.736 44.3495C157.273 44.0162 157.936 43.7378 158.723 43.514C159.51 43.2903 160.242 43.1776 160.921 43.1776C162.328 43.1776 163.368 43.5108 164.04 44.1765Z" fill="white"/>
<path fill-rule="evenodd" clip-rule="evenodd" d="M167.217 52.8341H170.116V43.4084H167.217V52.8341ZM167.121 41.5844H170.231V38.8781H167.121V41.5844Z" fill="white"/>
<path fill-rule="evenodd" clip-rule="evenodd" d="M180.769 44.1666C181.319 44.8259 181.595 45.8208 181.595 47.1522V52.8346H178.696V47.2863C178.696 46.6468 178.577 46.1794 178.341 45.8851C178.104 45.5907 177.737 45.4432 177.237 45.4432C176.636 45.4432 176.153 45.636 175.788 46.0192C175.423 46.4032 175.241 46.9157 175.241 47.5552V52.8346H172.343V43.4089H175.165V44.7521C175.496 44.2411 175.928 43.8508 176.46 43.5818C176.99 43.3129 177.589 43.178 178.255 43.178C179.381 43.178 180.22 43.508 180.769 44.1666Z" fill="white"/>
<path fill-rule="evenodd" clip-rule="evenodd" d="M52.3571 30.7933V39.5146L47.997 43.8757V35.1544L52.3571 30.7933Z" fill="white"/>
<path fill-rule="evenodd" clip-rule="evenodd" d="M65.439 48.2366C65.439 53.0523 61.5345 56.9578 56.7178 56.9578C51.9001 56.9578 47.9966 53.0523 47.9966 48.2366V43.8755H52.3567V48.2366C52.3567 50.6405 54.3129 52.5967 56.7178 52.5967C59.1227 52.5967 61.0789 50.6405 61.0789 48.2366H65.439Z" fill="white"/>
<path fill-rule="evenodd" clip-rule="evenodd" d="M65.439 39.5149L61.0789 43.875H47.9966L52.3567 39.5149H65.439Z" fill="#00E8B4"/>
</g>
<defs>
<clipPath id="clip0">
<rect width="134.086" height="26.9759" fill="white" transform="translate(47.7814 30.0745)"/>
</clipPath>
</defs>
</svg>
