<svg width="230" height="88" viewBox="0 0 230 88" fill="none" xmlns="http://www.w3.org/2000/svg">
<path d="M95.4994 45.0192H100.018C100.652 45.0192 101.167 45.5375 101.167 46.177C101.167 46.8164 100.652 47.3348 100.018 47.3348H94.5679C94.4828 47.3348 94.4005 47.3655 94.3358 47.4212L92.6903 48.8396C92.4384 49.0567 92.5909 49.4723 92.9223 49.4723H99.7449C99.7476 49.4723 99.7498 49.4701 99.7498 49.4672C99.7498 49.4642 99.7525 49.4619 99.7553 49.4621C99.8413 49.4689 99.9279 49.4723 100.016 49.4723C101.826 49.4723 103.293 47.997 103.293 46.177C103.293 44.4487 101.97 43.0312 100.286 42.8927C100.284 42.8925 100.281 42.8901 100.281 42.8872C100.281 42.8841 100.279 42.8816 100.276 42.8816H95.4081C94.7734 42.8816 94.2589 42.3633 94.2589 41.7238C94.2589 41.0844 94.7734 40.566 95.4081 40.566H100.851C100.94 40.566 101.027 40.532 101.092 40.4709L102.62 39.0525C102.86 38.8306 102.703 38.4285 102.379 38.4285H95.4994C95.4991 38.4285 95.4988 38.4287 95.4988 38.4291C95.4988 38.4294 95.4986 38.4296 95.4982 38.4296C95.469 38.4289 95.4397 38.4285 95.4102 38.4285C93.6005 38.4285 92.1333 39.9038 92.1333 41.7238C92.1333 43.5438 93.6005 45.0192 95.4102 45.0192C95.4397 45.0192 95.469 45.0188 95.4982 45.018C95.4986 45.018 95.4988 45.0182 95.4988 45.0186C95.4988 45.0189 95.4991 45.0192 95.4994 45.0192Z" fill="white"/>
<path d="M121.816 38.4285C121.619 38.4285 121.459 38.5895 121.459 38.7881V49.1128C121.459 49.3114 121.619 49.4723 121.816 49.4723H130.09C130.189 49.4723 130.283 49.4312 130.351 49.3587L131.387 48.2482C131.601 48.0186 131.439 47.6427 131.126 47.6427H123.901C123.704 47.6427 123.544 47.4817 123.544 47.2831V38.7881C123.544 38.5895 123.384 38.4285 123.186 38.4285H121.816Z" fill="white"/>
<path fill-rule="evenodd" clip-rule="evenodd" d="M108.565 38.4285C108.564 38.4285 108.564 38.4289 108.564 38.4295C108.564 38.4299 108.563 38.4304 108.563 38.4304C107.505 38.4762 106.656 39.3272 106.61 40.3869C106.61 40.3874 106.61 40.3879 106.61 40.3879C106.609 40.3879 106.609 40.388 106.608 40.3882C106.608 40.3884 106.608 40.3886 106.608 40.3889V47.3339C106.608 47.3344 106.609 47.3348 106.609 47.3348C106.61 47.3348 106.61 47.3353 106.61 47.3358C106.609 47.365 106.608 47.3944 106.608 47.4239C106.608 48.5251 107.475 49.4233 108.563 49.4704C108.563 49.4704 108.564 49.4708 108.564 49.4714V49.4718V49.4721C108.564 49.4723 108.564 49.4723 108.565 49.4723H116.072C116.072 49.4723 116.073 49.4719 116.073 49.4714L116.073 49.4708V49.4705L116.074 49.4704C117.161 49.4233 118.028 48.5251 118.028 47.4239C118.028 47.3944 118.028 47.365 118.026 47.3358C118.026 47.3353 118.027 47.3348 118.027 47.3348C118.027 47.3348 118.028 47.3344 118.028 47.3339V40.3889C118.028 40.3883 118.027 40.3879 118.027 40.3879C118.026 40.3879 118.026 40.3874 118.026 40.3869C117.98 39.3272 117.132 38.4762 116.074 38.4304C116.073 38.4304 116.073 38.4299 116.073 38.4295C116.073 38.4289 116.072 38.4285 116.072 38.4285H108.565ZM109.964 40.3879L109.963 40.3881V40.3885C109.963 40.3888 109.963 40.3891 109.963 40.3891C109.302 40.4179 108.771 40.9532 108.742 41.6198C108.742 41.6201 108.742 41.6204 108.742 41.6204C108.742 41.6204 108.741 41.6207 108.741 41.621V45.9897C108.741 45.99 108.742 45.9903 108.742 45.9903C108.742 45.9903 108.742 45.9905 108.742 45.9909C108.742 46.0092 108.741 46.0277 108.741 46.0463C108.741 46.7389 109.283 47.304 109.963 47.3336C109.963 47.3336 109.963 47.3339 109.963 47.3342V47.3345L109.964 47.3347V47.3348H114.673V47.3348L114.673 47.3345V47.3342C114.673 47.3339 114.673 47.3336 114.674 47.3336C115.353 47.304 115.895 46.7389 115.895 46.0463C115.895 46.0277 115.895 46.0092 115.894 45.9909V45.9907V45.9905L115.895 45.9903C115.895 45.9903 115.895 45.99 115.895 45.9897V41.621C115.895 41.6207 115.895 41.6204 115.895 41.6204C115.894 41.6204 115.894 41.6201 115.894 41.6198C115.866 40.9532 115.335 40.4179 114.674 40.3891C114.673 40.3891 114.673 40.3888 114.673 40.3885V40.3882L114.673 40.388V40.3879H109.964Z" fill="white"/>
<path fill-rule="evenodd" clip-rule="evenodd" d="M143.418 49.1128C143.418 49.3114 143.577 49.4723 143.772 49.4723H145.176C145.371 49.4723 145.53 49.3114 145.53 49.1128V40.5669C145.53 40.5664 145.53 40.566 145.529 40.566V40.5659L145.528 40.5657C145.528 40.5656 145.528 40.5653 145.528 40.565C145.53 40.5358 145.53 40.5065 145.53 40.4769C145.53 39.3757 144.671 38.4775 143.595 38.4304C143.594 38.4304 143.594 38.4299 143.594 38.4295C143.594 38.4289 143.593 38.4285 143.592 38.4285H136.385C136.385 38.4285 136.384 38.4289 136.384 38.4294C136.384 38.4299 136.384 38.4303 136.383 38.4303C136.355 38.4291 136.326 38.4285 136.296 38.4285C135.178 38.4285 134.272 39.3456 134.272 40.4769C134.272 40.5065 134.272 40.5358 134.273 40.565C134.273 40.5655 134.273 40.566 134.273 40.566C134.272 40.566 134.272 40.5664 134.272 40.5669V49.1128C134.272 49.3114 134.431 49.4723 134.626 49.4723H136.03C136.225 49.4723 136.384 49.3114 136.384 49.1128V45.5569C136.384 45.3583 136.543 45.1973 136.739 45.1973H143.063C143.259 45.1973 143.418 45.3583 143.418 45.5569V49.1128ZM136.384 43.2346V41.4566C136.384 40.768 136.936 40.2097 137.617 40.2097H142.185C142.866 40.2097 143.418 40.768 143.418 41.4566V43.2346C143.418 43.4332 143.259 43.5942 143.063 43.5942H136.739C136.543 43.5942 136.384 43.4332 136.384 43.2346Z" fill="white"/>
<path fill-rule="evenodd" clip-rule="evenodd" d="M173.037 49.4723C172.839 49.4723 172.679 49.3114 172.679 49.1128V45.5569C172.679 45.3583 172.519 45.1973 172.321 45.1973H165.927C165.729 45.1973 165.569 45.3583 165.569 45.5569V49.1128C165.569 49.3114 165.409 49.4723 165.211 49.4723H163.794C163.596 49.4723 163.436 49.3114 163.436 49.1128V40.5669V40.5667L163.436 40.5664C163.436 40.5661 163.437 40.566 163.437 40.566C163.437 40.566 163.438 40.5655 163.438 40.565C163.437 40.5358 163.436 40.5065 163.436 40.4769C163.436 39.3456 164.351 38.4285 165.48 38.4285C165.509 38.4285 165.539 38.4291 165.568 38.4303C165.569 38.4303 165.569 38.4299 165.569 38.4294C165.569 38.4289 165.57 38.4285 165.57 38.4285H172.856C172.856 38.4285 172.857 38.4289 172.857 38.4295C172.857 38.4299 172.857 38.4304 172.857 38.4304C173.945 38.4775 174.812 39.3757 174.812 40.4769C174.812 40.5065 174.811 40.5358 174.81 40.565C174.81 40.5655 174.81 40.566 174.811 40.566C174.811 40.566 174.812 40.5661 174.812 40.5663C174.812 40.5665 174.812 40.5667 174.812 40.5669V49.1128C174.812 49.3114 174.652 49.4723 174.454 49.4723H173.037ZM165.569 41.4566V43.2346C165.569 43.4332 165.729 43.5942 165.927 43.5942H172.321C172.519 43.5942 172.679 43.4332 172.679 43.2346V41.4566C172.679 40.768 172.122 40.2097 171.435 40.2097H166.813C166.126 40.2097 165.569 40.768 165.569 41.4566Z" fill="white"/>
<path d="M150.812 38.4285C150.916 38.4285 151.014 38.4746 151.082 38.5547L157.375 46.0566C157.589 46.311 158 46.1576 158 45.8233V38.7881C158 38.5895 158.158 38.4285 158.354 38.4285H159.758C159.953 38.4285 160.112 38.5895 160.112 38.7881V49.1128C160.112 49.3114 159.953 49.4723 159.758 49.4723H158.013C158.005 49.4723 158 49.4663 158 49.4589C158 49.4557 157.998 49.4525 157.996 49.4501L151.598 42.0005C151.382 41.7502 150.976 41.9048 150.976 42.237V49.1128C150.976 49.3114 150.817 49.4723 150.621 49.4723H149.208C149.013 49.4723 148.854 49.3114 148.854 49.1128V38.7881C148.854 38.5895 149.013 38.4285 149.208 38.4285H150.812Z" fill="white"/>
<path d="M59.5115 49.8525C59.6865 49.6777 59.9237 49.5795 60.1711 49.5795H82.9928C83.4085 49.5795 83.6166 50.0823 83.3225 50.3761L78.813 54.882C78.6381 55.0569 78.4008 55.1551 78.1535 55.1551H55.3318C54.9161 55.1551 54.708 54.6523 55.002 54.3585L59.5115 49.8525Z" fill="url(#paint0_linear)"/>
<path d="M59.5115 33.0187C59.6865 32.8439 59.9237 32.7457 60.1711 32.7457H82.9928C83.4085 32.7457 83.6166 33.2484 83.3225 33.5423L78.813 38.0482C78.6381 38.223 78.4008 38.3212 78.1535 38.3212H55.3318C54.9161 38.3212 54.708 37.8185 55.002 37.5247L59.5115 33.0187Z" fill="url(#paint1_linear)"/>
<path d="M78.813 41.3821C78.6381 41.2073 78.4008 41.1091 78.1535 41.1091H55.3318C54.9161 41.1091 54.708 41.6118 55.002 41.9056L59.5115 46.4116C59.6865 46.5864 59.9237 46.6846 60.1711 46.6846H82.9928C83.4085 46.6846 83.6166 46.1819 83.3225 45.888L78.813 41.3821Z" fill="url(#paint2_linear)"/>
<defs>
<linearGradient id="paint0_linear" x1="74.1969" y1="26.5986" x2="58.4023" y2="56.8516" gradientUnits="userSpaceOnUse">
<stop stop-color="#00FFA3"/>
<stop offset="1" stop-color="#DC1FFF"/>
</linearGradient>
<linearGradient id="paint1_linear" x1="74.1969" y1="26.5987" x2="58.4023" y2="56.8516" gradientUnits="userSpaceOnUse">
<stop stop-color="#00FFA3"/>
<stop offset="1" stop-color="#DC1FFF"/>
</linearGradient>
<linearGradient id="paint2_linear" x1="74.1969" y1="26.5987" x2="58.4023" y2="56.8516" gradientUnits="userSpaceOnUse">
<stop stop-color="#00FFA3"/>
<stop offset="1" stop-color="#DC1FFF"/>
</linearGradient>
</defs>
</svg>
