<svg width="230" height="87" viewBox="0 0 230 87" fill="none" xmlns="http://www.w3.org/2000/svg">
<g clip-path="url(#clip0)">
<mask id="mask0" mask-type="alpha" maskUnits="userSpaceOnUse" x="40" y="24" width="150" height="32">
<path d="M40.3388 24.9796H189.182V55.7949H40.3388V24.9796Z" fill="white"/>
</mask>
<g mask="url(#mask0)">
<path fill-rule="evenodd" clip-rule="evenodd" d="M162.42 31.911H168.241V26.2251H162.42V31.911ZM62.3941 48.1308C60.72 49.3422 58.5515 49.9724 56.1275 49.9724C50.7761 49.9724 47.011 45.9136 47.011 40.387V40.3021C47.011 35.1639 50.8283 30.882 55.6604 30.882C59.1345 30.882 61.1945 32.0026 63.4848 33.9231L67.5062 29.0613C64.4149 26.427 61.1958 24.9796 55.8727 24.9796C46.8877 24.9796 40.3388 31.9328 40.3388 40.387V40.4723C40.3388 49.268 46.6698 55.7946 55.9192 55.7946C61.3291 55.7946 65.5268 53.6661 68.5661 51.0794V44.0204H62.3941V48.1308ZM56.0534 44.0204H62.3943V37.8267H56.0534V44.0204ZM181.491 42.0615C178.303 41.4224 177.071 41.0802 177.071 40.1428C177.071 39.2046 177.92 38.394 179.833 38.394C181.746 38.394 183.19 39.3324 183.743 40.7392L188.885 38.5647C187.355 35.5792 184.635 33.5787 179.876 33.6167C174.605 33.6611 171.164 36.73 171.164 40.3128C171.164 44.8764 174.992 46.1774 178.812 46.8822C181.28 47.3366 183.36 47.6912 183.36 48.8436C183.36 49.8668 182.34 50.7623 180.428 50.7623C178.345 50.7623 176.731 49.824 175.965 47.8619L170.398 50.037C171.929 53.7901 175.031 55.7588 180.173 55.7946C186.293 55.8372 189.182 51.7856 189.182 48.6725C189.182 44.0664 185.06 42.7861 181.491 42.0615ZM162.42 55.3681H168.241V34.0435H162.42V55.3681ZM152.38 42.0615C149.192 41.4224 147.959 41.0802 147.959 40.1428C147.959 39.2046 148.81 38.394 150.722 38.394C152.635 38.394 154.079 39.3324 154.632 40.7392L159.774 38.5647C158.243 35.5792 155.524 33.5787 150.765 33.6167C145.494 33.6611 142.052 36.73 142.052 40.3128C142.052 44.8764 145.881 46.1774 149.702 46.8822C152.17 47.3366 154.249 47.6912 154.249 48.8436C154.249 49.8668 153.229 50.7623 151.316 50.7623C149.235 50.7623 147.62 49.824 146.855 47.8619L141.287 50.037C142.818 53.7901 145.92 55.7588 151.062 55.7946C157.182 55.8372 160.072 51.7856 160.072 48.6725C160.072 44.0664 155.949 42.7861 152.38 42.0615ZM128.904 33.6167C122.785 33.6167 117.855 38.5647 117.855 44.7055C117.855 50.8474 122.445 55.7946 129.073 55.7946C133.791 55.7946 137.149 53.449 138.976 50.1221L134.344 47.3493C133.409 49.398 131.454 50.677 129.117 50.677C126.057 50.677 124.145 49.1416 123.465 46.7951H139.869V44.6637C139.869 38.5214 135.406 33.6167 128.904 33.6167ZM123.719 42.1042C124.612 40.1003 126.483 38.7351 128.946 38.7351C131.412 38.7351 133.238 39.887 134.004 42.1042H123.719ZM107.363 33.6167C104.94 33.6167 102.858 34.6832 101.498 36.432V34.0435H95.7178V55.3681H101.541V43.7249C101.541 40.1428 103.368 38.6078 105.577 38.6078C108.169 38.6078 109.487 40.271 109.487 43.127V55.3681H115.394V42.3606C115.394 36.8584 112.376 33.6167 107.363 33.6167ZM82.1881 33.6167C76.069 33.6167 71.1393 38.5647 71.1393 44.7055C71.1393 50.8474 75.7285 55.7946 82.3586 55.7946C87.0751 55.7946 90.4328 53.449 92.2596 50.1221L87.6284 47.3493C86.6927 49.398 84.7372 50.677 82.4011 50.677C79.3412 50.677 77.4285 49.1416 76.7485 46.7951H93.1517V44.6637C93.1517 38.5214 88.6905 33.6167 82.1881 33.6167ZM77.0034 42.1042C77.8957 40.1003 79.7659 38.7351 82.2313 38.7351C84.696 38.7351 86.5227 39.887 87.2879 42.1042H77.0034Z" fill="white"/>
</g>
</g>
<defs>
<clipPath id="clip0">
<rect width="148.844" height="30.8153" fill="white" transform="translate(40.3388 24.9796)"/>
</clipPath>
</defs>
</svg>
