<svg width="230" height="87" viewBox="0 0 230 87" fill="none" xmlns="http://www.w3.org/2000/svg">
<g clip-path="url(#clip0)">
<path d="M156.657 36.5202C154.526 36.5202 152.624 37.3952 151.255 38.8408L141.364 48.1609C140.451 48.9978 139.31 49.4543 138.13 49.4163C138.054 49.4163 137.978 49.4163 137.902 49.4163C135.277 49.2261 133.147 47.0577 132.957 44.4329C132.843 42.9112 133.375 41.4656 134.402 40.3624C135.429 39.2592 136.837 38.6505 138.359 38.6505C139.614 38.6505 140.869 39.107 141.82 39.9059C142.277 40.2863 142.962 40.2483 143.342 39.7918C143.722 39.3353 143.684 38.6505 143.228 38.2701C141.858 37.1289 140.147 36.4822 138.359 36.4822C136.266 36.4822 134.288 37.3571 132.843 38.8788C131.397 40.4385 130.674 42.4167 130.826 44.547C131.093 48.237 134.06 51.2423 137.75 51.5086C137.864 51.5086 137.978 51.5086 138.054 51.5086C138.13 51.5086 138.206 51.5086 138.283 51.5086C139.918 51.5086 141.592 50.8238 142.848 49.6445L149.2 43.672C149.2 43.7861 149.2 43.8622 149.2 43.9764C149.2 48.1229 152.586 51.5086 156.733 51.5086C158.064 51.5086 159.396 51.1662 160.537 50.4815C161.031 50.1771 161.222 49.5304 160.917 48.9978C160.613 48.5033 159.966 48.3131 159.434 48.6174C158.597 49.112 157.684 49.3402 156.695 49.3402C153.727 49.3402 151.293 46.9436 151.293 43.9383C151.293 42.5308 151.863 41.2374 152.738 40.2483L152.89 40.0961C152.929 40.0581 152.929 40.0581 152.967 40.02C153.918 39.107 155.249 38.5364 156.657 38.5364C159.624 38.5364 162.058 40.933 162.058 43.9383V50.4054C162.058 51.014 162.553 51.4705 163.124 51.4705C163.732 51.4705 164.189 50.976 164.189 50.4054V43.9383C164.189 39.9059 160.803 36.5202 156.657 36.5202Z" fill="white"/>
<path d="M174.156 36.5203C172.368 36.5203 170.732 37.1289 169.4 38.2321V37.6996C169.4 37.0909 168.906 36.6344 168.335 36.6344C167.727 36.6344 167.27 37.1289 167.27 37.6996V55.9595C167.27 56.5681 167.765 57.0246 168.335 57.0246C168.944 57.0246 169.4 56.5301 169.4 55.9595V49.8728C170.732 50.976 172.406 51.5847 174.156 51.5847C178.302 51.5847 181.688 48.199 181.688 44.0525C181.65 39.906 178.302 36.5203 174.156 36.5203ZM174.156 49.4163C172.748 49.4163 171.417 48.8838 170.428 47.9327C170.009 47.5143 169.667 47.0578 169.4 46.5632V41.4657C169.477 41.3135 169.667 41.0472 169.857 40.7809C170.884 39.4114 172.444 38.6125 174.156 38.6125C177.123 38.6125 179.558 41.0092 179.558 44.0144C179.52 47.0197 177.123 49.4163 174.156 49.4163Z" fill="white"/>
<path d="M59.8781 51.5095H55.6175C51.6992 51.5095 48.5037 48.3141 48.5037 44.3958V31.3856C48.5037 30.7769 48.9983 30.3204 49.5689 30.3204C50.1395 30.3204 50.634 30.815 50.634 31.3856V44.3958C50.634 47.1348 52.8785 49.3792 55.6175 49.3792H59.8401C60.4488 49.3792 60.9052 49.8738 60.9052 50.4444C60.9433 51.015 60.4488 51.5095 59.8781 51.5095Z" fill="white"/>
<path d="M68.5525 51.5086C64.4059 51.5086 60.9822 48.1229 60.9822 43.9383C60.9822 39.7537 64.3679 36.368 68.5525 36.368C70.5687 36.368 72.4707 37.1669 73.8783 38.5744C74.2967 38.9929 74.2967 39.6777 73.8783 40.0961L65.7374 48.237C65.6613 48.3131 65.5852 48.3511 65.5091 48.4272C66.3841 48.9978 67.4112 49.3402 68.5525 49.3402C69.7318 49.3402 70.835 48.9598 71.748 48.275C72.2425 47.9327 72.8892 48.0087 73.2316 48.5033C73.574 48.9978 73.4979 49.6445 73.0033 49.9869C71.7099 50.976 70.1502 51.5086 68.5525 51.5086ZM68.5525 38.5364C65.5852 38.5364 63.1506 40.9711 63.1506 43.9383C63.1506 45.0415 63.4929 46.1067 64.0636 46.9816C64.1016 46.9055 64.1777 46.8295 64.2538 46.7534L71.5578 39.4494C70.6448 38.8407 69.6176 38.5364 68.5525 38.5364Z" fill="white"/>
<path d="M89.0569 36.5963C87.5352 36.5963 86.1277 37.3191 85.2527 38.4223C84.3397 37.281 82.9702 36.5582 81.4105 36.5582C80.2312 36.5582 79.128 36.9767 78.2911 37.6995C78.1009 37.5473 77.8727 37.4332 77.6064 37.4332C76.9977 37.4332 76.5412 37.9277 76.5412 38.4983V50.4434C76.5412 51.052 77.0357 51.5085 77.6064 51.5085C78.177 51.5085 78.6715 51.014 78.6715 50.4434V41.4656C78.6715 39.9439 79.9269 38.7266 81.4105 38.7266C82.9322 38.7266 84.1495 39.982 84.1495 41.4656V50.4053C84.1495 51.014 84.644 51.4705 85.2147 51.4705C85.8233 51.4705 86.2798 50.976 86.2798 50.4053V41.5036C86.2798 39.982 87.5352 38.7646 89.0188 38.7646C90.5405 38.7646 91.7578 40.02 91.7578 41.5036V50.4434C91.7578 51.052 92.2523 51.5085 92.823 51.5085C93.4316 51.5085 93.8881 51.014 93.8881 50.4434V41.5036C93.9642 38.8027 91.7578 36.5963 89.0569 36.5963Z" fill="white"/>
<path d="M103.056 36.5963C101.534 36.5963 100.127 37.1669 99.0617 38.118C98.9096 37.7376 98.5292 37.4332 98.0727 37.4332C97.464 37.4332 97.0075 37.9278 97.0075 38.4984V50.4434C97.0075 51.0521 97.502 51.5086 98.0727 51.5086C98.6813 51.5086 99.1378 51.014 99.1378 50.4434V42.6449C99.1378 42.6449 99.1378 42.6449 99.1378 42.6069C99.1378 40.4385 100.888 38.6886 103.056 38.6886C105.224 38.6886 106.974 40.4385 106.974 42.6069V50.4434C106.974 51.0521 107.469 51.5086 108.04 51.5086C108.648 51.5086 109.105 51.014 109.105 50.4434V42.6449C109.105 39.2973 106.404 36.5963 103.056 36.5963Z" fill="white"/>
<path d="M124.626 51.5085C124.588 51.5085 124.588 51.5085 124.588 51.5085H119.186C118.577 51.5085 118.121 51.014 118.121 50.4434C118.121 49.8347 118.615 49.3782 119.186 49.3782H124.626C124.664 49.3782 125.653 49.3782 126.261 48.7695C126.604 48.4272 126.794 47.8946 126.794 47.2098C126.794 46.5251 126.604 45.9925 126.261 45.6501C125.653 45.0415 124.664 45.0415 124.664 45.0415H121.658C121.43 45.0415 119.718 45.0034 118.501 43.7861C117.778 43.0633 117.398 42.0742 117.398 40.895C117.398 37.7375 120.175 36.6724 121.62 36.5582C121.658 36.5582 121.658 36.5582 121.696 36.5582H126.946C127.555 36.5582 128.011 37.0528 128.011 37.6234C128.011 38.194 127.517 38.6886 126.946 38.6886H121.773C121.354 38.7266 119.566 39.0309 119.566 40.895C119.566 41.5036 119.718 41.9601 120.061 42.2645C120.669 42.8731 121.696 42.9112 121.734 42.9112H124.74C124.892 42.9112 126.604 42.9112 127.859 44.1285C128.658 44.8893 129.038 45.9164 129.038 47.2098C129.038 48.5033 128.658 49.5304 127.859 50.2912C126.566 51.4325 124.968 51.5085 124.626 51.5085Z" fill="white"/>
<path d="M113.213 51.5086C112.605 51.5086 112.148 51.0141 112.148 50.4434V37.8897C112.148 37.2811 112.643 36.8246 113.213 36.8246C113.784 36.8246 114.278 37.3191 114.278 37.8897V50.4434C114.278 51.0141 113.822 51.5086 113.213 51.5086Z" fill="white"/>
<path d="M111.806 34.1616C111.653 34.1616 111.463 34.0855 111.349 33.9714C111.083 33.7051 111.083 33.3247 111.349 33.0584L112.795 31.6128C113.061 31.3465 113.441 31.3465 113.708 31.6128L115.115 33.0203C115.382 33.2866 115.382 33.667 115.115 33.9333C114.849 34.1996 114.469 34.1996 114.202 33.9333L113.251 32.9823L112.262 33.9714C112.148 34.1235 111.958 34.1616 111.806 34.1616Z" fill="white"/>
</g>
<defs>
<clipPath id="clip0">
<rect width="133.145" height="27.0095" fill="white" transform="translate(48.5426 30.2816)"/>
</clipPath>
</defs>
</svg>
